HIERARCHY
ROOT Hips
{
	OFFSET 0.00000 0.00000 0.00000
	CHANNELS 6 Xposition Yposition Zposition Zrotation Yrotation Xrotation 
	JOINT LHipJoint
	{
		OFFSET 0 0 0
		CHANNELS 3 Zrotation Yrotation Xrotation
		JOINT LeftHip
		{
			OFFSET 1.34019 -1.87553 0.90315
			CHANNELS 3 Zrotation Yrotation Xrotation
			JOINT LeftKnee
			{
				OFFSET 2.55316 -7.01474 0.00000
				CHANNELS 3 Zrotation Yrotation Xrotation
				JOINT LeftAnkle
				{
					OFFSET 2.64657 -7.27139 0.00000
					CHANNELS 3 Zrotation Yrotation Xrotation
					JOINT LeftToe
					{
						OFFSET 0.24207 -0.66507 2.14489
						CHANNELS 3 Zrotation Yrotation Xrotation
						End Site
						{
							OFFSET 0.00000 -0.00000 1.12451
						}
					}
				}
			}
		}
	}
	JOINT RHipJoint
	{
		OFFSET 0 0 0
		CHANNELS 3 Zrotation Yrotation Xrotation
		JOINT RightHip
		{
			OFFSET -1.28320 -1.87553 0.90315
			CHANNELS 3 Zrotation Yrotation Xrotation
			JOINT RightKnee
			{
				OFFSET -2.60484 -7.15674 0.00000
				CHANNELS 3 Zrotation Yrotation Xrotation
				JOINT RightAnkle
				{
					OFFSET -2.60296 -7.15159 0.00000
					CHANNELS 3 Zrotation Yrotation Xrotation
					JOINT RightToe
					{
						OFFSET -0.31082 -0.85398 2.28998
						CHANNELS 3 Zrotation Yrotation Xrotation
						End Site
						{
							OFFSET -0.00000 -0.00000 1.21611
						}
					}
				}
			}
		}
	}
	JOINT lowerback
	{
		OFFSET 0 0 0
		CHANNELS 3 Zrotation Yrotation Xrotation
		JOINT Chest
		{
			OFFSET -0.00160 2.05581 -0.15156
			CHANNELS 3 Zrotation Yrotation Xrotation
			JOINT Chest2
			{
				OFFSET 0.04594 2.06326 -0.01617
				CHANNELS 3 Zrotation Yrotation Xrotation
				JOINT lowerneck
				{
					OFFSET 0 0 0
					CHANNELS 3 Zrotation Yrotation Xrotation
					JOINT Neck
					{
						OFFSET 0.03753 1.73883 0.26751
						CHANNELS 3 Zrotation Yrotation Xrotation
						JOINT Head
						{
							OFFSET -0.09795 1.76129 -0.31794
							CHANNELS 3 Zrotation Yrotation Xrotation
							End Site
							{
								OFFSET -0.03611 1.79987 -0.13846
							}
						}
					}
				}
				JOINT LeftCollar
				{
					OFFSET 0 0 0
					CHANNELS 3 Zrotation Yrotation Xrotation
					JOINT LeftShoulder
					{
						OFFSET 3.30667 1.29205 -0.22445
CHANNELS 3 Zrotation Xrotation Yrotation
						JOINT LeftElbow
						{
OFFSET 0 -4.927850 -0.000000
CHANNELS 3 Zrotation Xrotation Yrotation
							JOINT LeftWrist
							{
OFFSET 0 -3.440520 0.000000
CHANNELS 3 Zrotation Xrotation Yrotation
								JOINT lhand
								{
									OFFSET 0 0 0
CHANNELS 3 Zrotation Xrotation Yrotation
									JOINT LFingers
									{
OFFSET 0 -0.654330 0.000000
CHANNELS 3 Zrotation Xrotation Yrotation
										End Site
										{
OFFSET 0 -0.527530 0.000000
										}
									}
								}
								JOINT LThumb
								{
OFFSET 0 0.000000 0.000000
CHANNELS 3 Zrotation Xrotation Yrotation
									End Site
									{
OFFSET 0 -0.535590 0.535590
									}
								}
							}
						}
					}
				}
				JOINT RightCollar
				{
					OFFSET 0 0 0
					CHANNELS 3 Zrotation Yrotation Xrotation
					JOINT RightShoulder
					{
						OFFSET -3.20032 1.49783 -0.27688
CHANNELS 3 Zrotation Xrotation Yrotation
						JOINT RightElbow
						{
OFFSET 0 -5.091810 -0.000000
CHANNELS 3 Zrotation Xrotation Yrotation
							JOINT RightWrist
							{
OFFSET 0 -3.498650 -0.000000
CHANNELS 3 Zrotation Xrotation Yrotation
								JOINT rhand
								{
									OFFSET 0 0 0
CHANNELS 3 Zrotation Xrotation Yrotation
									JOINT RFingers
									{
OFFSET 0 -0.666410 0.000000
CHANNELS 3 Zrotation Xrotation Yrotation
										End Site
										{
OFFSET 0 -0.537280 0.000000
										}
									}
								}
								JOINT RThumb
								{
OFFSET 0 0.000000 0.000000
CHANNELS 3 Zrotation Xrotation Yrotation
									End Site
									{
OFFSET 0 -0.545480 0.545480
									}
								}
							}
						}
					}
				}
			}
		}
	}
}
MOTION
Frames: 10
Frame Time: 0.008333333333333333
1.351566 17.537973 1.968871 -4.421652 3.565910 0.299982 0.000000 0.000000 0.000000 -10.819798 -11.913936 -28.761214 2.869316 10.479908 30.545828 -0.041166 4.188456 -3.824121 1.069471 -6.572814 -18.456281 0.000000 0.000000 0.000000 25.268598 -8.531730 16.146001 -1.507569 -7.752462 21.965934 1.899325 -23.671598 -12.208403 -0.015153 0.788523 -2.167195 7.844155 11.840877 4.866433 0.235963 16.229971 -0.464363 -4.562087 8.046309 -1.093614 -2.293313 -6.799791 -12.297809 -1.199519 -8.592156 17.153849 -0.864680 -4.352495 7.335378 0.000000 0.000000 0.000000 26.887230 19.704392 17.222510 28.842403 -39.880241 10.659540 19.242069 -13.916765 -0.492229 0.000000 0.000000 0.000000 -7.125000 0.000000 0.000000 -5.797453 30.473354 -2.065948 0.000000 0.000000 0.000000 -26.236936 -29.485977 12.814027 -32.033108 -42.573056 -12.763375 -18.587739 -23.989469 -6.822810 0.000000 0.000000 0.000000 7.125000 0.000000 0.000000 6.001610 22.796336 3.224684
1.401512 17.547185 2.192350 -4.165971 4.214443 0.233405 0.000000 0.000000 0.000000 -11.676953 -11.382132 -28.696618 3.052967 10.779548 31.540843 -0.012396 3.352023 -4.106338 0.920241 -6.109105 -17.102163 0.000000 0.000000 0.000000 24.876888 -9.708822 15.230469 -1.761657 -8.347625 23.776883 2.051526 -24.427363 -11.516183 -0.005444 0.459805 -1.263507 7.812114 11.886263 4.919977 0.128795 16.285698 -0.361943 -4.645956 8.082745 -0.985432 -2.635397 -7.120226 -12.355174 -0.914605 -9.015029 17.133765 -0.765510 -4.549559 7.371895 0.000000 0.000000 0.000000 26.779093 20.353040 18.321677 28.935002 -39.962831 10.718919 19.234739 -13.984993 -0.557957 0.000000 0.000000 0.000000 -7.125000 0.000000 0.000000 -5.807565 30.542536 -2.059892 0.000000 0.000000 0.000000 -26.326090 -30.515581 11.888909 -31.393347 -42.057391 -12.332831 -19.003342 -24.277612 -6.721517 0.000000 0.000000 0.000000 7.125000 0.000000 0.000000 5.698187 22.884230 3.048577
1.453476 17.559174 2.413644 -4.062251 4.871802 0.156366 0.000000 0.000000 0.000000 -12.306302 -11.089803 -28.494886 3.225783 11.051512 32.454208 0.008124 2.824680 -4.481794 0.779623 -5.635577 -15.730948 0.000000 0.000000 0.000000 24.639720 -10.871146 14.320281 -2.015914 -8.897689 25.476728 2.227434 -25.301484 -10.615934 -0.000686 0.141951 -0.390110 7.946751 11.923132 4.955219 0.090348 16.339203 -0.265574 -4.736803 8.117555 -0.849178 -2.958591 -7.443622 -12.381525 -0.692328 -9.434476 17.110391 -0.688521 -4.749557 7.400172 0.000000 0.000000 0.000000 26.586187 20.865731 19.228214 29.018721 -40.037361 10.772793 19.138891 -13.980613 -0.653499 0.000000 0.000000 0.000000 -7.125000 0.000000 0.000000 -5.889644 30.642038 -2.075167 0.000000 0.000000 0.000000 -26.472019 -31.418008 10.974280 -30.778118 -41.550703 -11.922508 -19.414437 -24.527490 -6.578180 0.000000 0.000000 0.000000 7.125000 0.000000 0.000000 5.397928 23.016790 2.869983
1.506818 17.574688 2.632832 -4.056986 5.476377 0.072338 0.000000 0.000000 0.000000 -12.772667 -10.975767 -28.128450 3.373197 11.275794 33.216037 0.021555 2.630833 -4.892785 0.648578 -5.149761 -14.336580 0.000000 0.000000 0.000000 24.495177 -11.940478 13.446776 -2.269166 -9.404062 27.068841 2.425020 -26.300952 -9.517933 -0.002578 -0.290579 0.798483 8.159761 11.964055 4.977564 0.115928 16.403564 -0.192431 -4.801859 8.155829 -0.726086 -3.201759 -7.756983 -12.296967 -0.622737 -9.829950 17.007532 -0.663645 -4.948208 7.372674 0.000000 0.000000 0.000000 26.288828 21.282626 19.933364 29.117823 -40.125141 10.836563 19.009205 -13.954085 -0.765542 0.000000 0.000000 0.000000 -7.125000 0.000000 0.000000 -5.999939 30.758322 -2.097613 0.000000 0.000000 0.000000 -26.660762 -32.173036 10.122739 -30.180886 -41.047469 -11.528410 -19.738426 -24.732961 -6.419449 0.000000 0.000000 0.000000 7.125000 0.000000 0.000000 5.161263 23.170043 2.724952
1.560815 17.594627 2.851560 -4.056157 5.989291 -0.013072 0.000000 0.000000 0.000000 -13.208327 -10.920965 -27.599397 3.487136 11.444496 33.794279 0.032360 2.622874 -5.342948 0.537886 -4.696273 -13.044772 0.000000 0.000000 0.000000 24.329628 -12.893772 12.626308 -2.522559 -9.876806 28.580553 2.636001 -27.397185 -8.279608 -0.018706 -0.851766 2.341242 8.346365 12.008960 5.001525 0.167715 16.474098 -0.150585 -4.834218 8.194118 -0.650526 -3.339175 -8.046119 -12.141788 -0.699449 -10.188335 16.890539 -0.693809 -5.136668 7.315118 0.000000 0.000000 0.000000 25.904415 21.645565 20.478631 29.234243 -40.227891 10.911701 18.886431 -13.932388 -0.830670 0.000000 0.000000 0.000000 -7.125000 0.000000 0.000000 -6.101642 30.825204 -2.123743 0.000000 0.000000 0.000000 -26.849312 -32.815544 9.392747 -29.577361 -40.527588 -11.134237 -19.925249 -24.914026 -6.285870 0.000000 0.000000 0.000000 7.125000 0.000000 0.000000 5.024951 23.303022 2.637022
1.615323 17.618615 3.070381 -4.000685 6.421019 -0.092674 0.000000 0.000000 0.000000 -13.698513 -10.861374 -26.932707 3.567326 11.561145 34.196806 0.042823 2.717579 -5.845479 0.445660 -4.281765 -11.871010 0.000000 0.000000 0.000000 24.067309 -13.755506 11.860112 -2.777592 -10.325130 30.036978 2.852235 -28.555188 -6.962875 -0.053856 -1.489207 4.096155 8.443049 12.048038 4.994260 0.230802 16.529759 -0.119518 -4.809377 8.224064 -0.598844 -3.448761 -8.307620 -11.985933 -0.806391 -10.509777 16.852646 -0.735716 -5.307843 7.279827 0.000000 0.000000 0.000000 25.418537 21.968528 20.927636 29.362241 -40.340450 10.994443 18.809421 -13.945121 -0.804482 0.000000 0.000000 0.000000 -7.125000 0.000000 0.000000 -6.160689 30.796599 -2.148805 0.000000 0.000000 0.000000 -27.029614 -33.392597 8.808059 -28.960570 -39.985269 -10.735486 -19.981395 -25.040599 -6.193246 0.000000 0.000000 0.000000 7.125000 0.000000 0.000000 4.984583 23.398611 2.604624
1.669034 17.646429 3.288332 -3.870407 6.770475 -0.152512 0.000000 0.000000 0.000000 -14.258238 -10.768012 -26.145822 3.609164 11.621297 34.405100 0.052025 2.923155 -6.369027 0.373769 -3.925605 -10.867574 0.000000 0.000000 0.000000 23.705968 -14.490046 11.131300 -3.036897 -10.753421 31.453740 3.074879 -29.788686 -5.574941 -0.107288 -2.105203 5.796732 8.420645 12.075828 4.954980 0.291245 16.561792 -0.102540 -4.728187 8.240942 -0.579426 -3.541382 -8.531461 -11.890508 -0.876199 -10.789579 16.970972 -0.771465 -5.453278 7.306824 0.000000 0.000000 0.000000 24.825986 22.241004 21.293944 29.494124 -40.455782 11.079924 18.795101 -13.997893 -0.634167 0.000000 0.000000 0.000000 -7.125000 0.000000 0.000000 -6.160039 30.617572 -2.175062 0.000000 0.000000 0.000000 -27.173044 -33.900218 8.389646 -28.337582 -39.424651 -10.337591 -19.882935 -25.021672 -6.159873 0.000000 0.000000 0.000000 7.125000 0.000000 0.000000 5.057619 23.438089 2.638558
1.720485 17.677668 3.504081 -3.685480 7.036807 -0.177439 0.000000 0.000000 0.000000 -14.850656 -10.617882 -25.295133 3.614997 11.629745 34.434297 0.060558 3.166313 -6.883429 0.319412 -3.631554 -10.042521 0.000000 0.000000 0.000000 23.288272 -15.068008 10.402281 -3.303427 -11.169180 32.854382 3.295756 -31.055685 -4.156785 -0.166809 -2.625488 7.238132 8.297072 12.106719 4.883540 0.344512 16.590314 -0.100735 -4.602714 8.255169 -0.584484 -3.630668 -8.727460 -11.873626 -0.885105 -11.041706 17.216399 -0.793656 -5.578273 7.392270 0.000000 0.000000 0.000000 24.166006 22.468197 21.483628 29.639750 -40.582581 11.174569 18.850810 -14.157381 -0.390476 0.000000 0.000000 0.000000 -7.125000 0.000000 0.000000 -6.099421 30.362177 -2.190793 0.000000 0.000000 0.000000 -27.259770 -34.298328 8.086981 -27.759085 -38.892880 -9.972310 -19.709233 -24.834992 -6.189781 0.000000 0.000000 0.000000 7.125000 0.000000 0.000000 5.185584 23.413825 2.708733
1.769682 17.711676 3.717230 -3.431266 7.262088 -0.164725 0.000000 0.000000 0.000000 -15.492995 -10.439077 -24.404525 3.591430 11.595981 34.317174 0.069585 3.392272 -7.377900 0.281082 -3.409739 -9.421710 0.000000 0.000000 0.000000 22.800351 -15.528197 9.646492 -3.577713 -11.575590 34.247496 3.506619 -32.298139 -2.790575 -0.221051 -3.025424 8.349530 8.069605 12.125701 4.803100 0.381592 16.597805 -0.116517 -4.447010 8.257305 -0.629414 -3.723679 -8.902027 -11.947233 -0.862815 -11.267656 17.569140 -0.811180 -5.686533 7.531083 0.000000 0.000000 0.000000 23.457305 22.674224 21.487534 29.797047 -40.718830 11.276991 18.946396 -14.440536 -0.117882 0.000000 0.000000 0.000000 -7.125000 0.000000 0.000000 -6.006115 30.076623 -2.198211 0.000000 0.000000 0.000000 -27.265341 -34.569800 7.907559 -27.260364 -38.426144 -9.660533 -19.512255 -24.491443 -6.254589 0.000000 0.000000 0.000000 7.125000 0.000000 0.000000 5.330099 23.353664 2.792253
1.816745 17.747556 3.927133 -3.146061 7.460185 -0.117901 0.000000 0.000000 0.000000 -16.137935 -10.244039 -23.492056 3.543384 11.526647 34.077255 0.079995 3.587182 -7.858723 0.256799 -3.260298 -9.004415 0.000000 0.000000 0.000000 22.278472 -15.893743 8.850663 -3.860851 -11.971923 35.634066 3.701313 -33.430844 -1.658526 -0.278098 -3.390207 9.367205 7.779202 12.116127 4.718277 0.416567 16.565178 -0.150510 -4.267935 8.237874 -0.712602 -3.836755 -9.055716 -12.020350 -0.818784 -11.465943 17.899704 -0.815841 -5.780830 7.665538 0.000000 0.000000 0.000000 22.684737 22.887057 21.282657 29.972307 -40.869664 11.391562 19.092675 -14.892681 0.114060 0.000000 0.000000 0.000000 -7.125000 0.000000 0.000000 -5.876550 29.833510 -2.184528 0.000000 0.000000 0.000000 -27.158109 -34.677370 7.904256 -26.894263 -38.078070 -9.433888 -19.355575 -24.042734 -6.333653 0.000000 0.000000 0.000000 7.125000 0.000000 0.000000 5.444588 23.276942 2.862327
